<svg xmlns="http://www.w3.org/2000/svg" viewBox="0 0 800 500" fill="none" aria-hidden="true">
  <!-- Circles -->
  <circle cx="680" cy="80" r="120" fill="#6b3fa0" opacity="0.06"/>
  <circle cx="760" cy="220" r="72" fill="#6b3fa0" opacity="0.08"/>
  <circle cx="580" cy="360" r="90" fill="#d4a23a" opacity="0.07"/>
  <circle cx="700" cy="420" r="48" fill="#6b3fa0" opacity="0.05"/>
  <circle cx="490" cy="60" r="40" fill="#d4a23a" opacity="0.06"/>

  <!-- Diamonds (rotated squares) -->
  <rect x="600" y="130" width="44" height="44" rx="4" fill="#6b3fa0" opacity="0.10" transform="rotate(45 622 152)"/>
  <rect x="520" y="260" width="28" height="28" rx="3" fill="#d4a23a" opacity="0.12" transform="rotate(45 534 274)"/>
  <rect x="730" y="310" width="36" height="36" rx="3" fill="#6b3fa0" opacity="0.08" transform="rotate(45 748 328)"/>
  <rect x="450" y="160" width="20" height="20" rx="2" fill="#6b3fa0" opacity="0.09" transform="rotate(45 460 170)"/>

  <!-- Small dots -->
  <circle cx="540" cy="180" r="5" fill="#6b3fa0" opacity="0.15"/>
  <circle cx="620" cy="300" r="4" fill="#d4a23a" opacity="0.18"/>
  <circle cx="480" cy="320" r="6" fill="#6b3fa0" opacity="0.10"/>
  <circle cx="660" cy="170" r="3" fill="#d4a23a" opacity="0.20"/>
  <circle cx="790" cy="120" r="5" fill="#6b3fa0" opacity="0.12"/>
  <circle cx="560" cy="440" r="4" fill="#6b3fa0" opacity="0.10"/>

  <!-- Lines -->
  <line x1="500" y1="100" x2="560" y2="100" stroke="#6b3fa0" stroke-width="2" opacity="0.10" stroke-linecap="round"/>
  <line x1="640" y1="250" x2="700" y2="250" stroke="#d4a23a" stroke-width="2" opacity="0.12" stroke-linecap="round"/>
  <line x1="720" y1="380" x2="760" y2="380" stroke="#6b3fa0" stroke-width="2" opacity="0.08" stroke-linecap="round"/>
</svg>
